<svg width="115" height="104" viewBox="0 0 250 251" fill="none" xmlns="http://www.w3.org/2000/svg">
<rect x="0.5" y="0.5" width="249" height="249" rx="9.5" fill="#DBDBDB" fill-opacity="0.15" stroke="#DBDBDB"/>
<g opacity="0.75">
<mask id="mask0" mask-type="alpha" maskUnits="userSpaceOnUse" x="0" y="24" width="250" height="227">
<rect y="24" width="250" height="226.087" rx="10" fill="#FBDA57"/>
</mask>
<g mask="url(#mask0)">
<g opacity="0.5">
<rect opacity="0.3" x="211.755" y="39.3823" width="172.533" height="307.776" rx="10" fill="#FBDA57"/>
<rect opacity="0.1" x="172.299" y="-9.98633" width="172.533" height="307.776" rx="10" fill="#FBDA57"/>
<rect opacity="0.2" x="111.39" y="99.6045" width="172.533" height="307.776" rx="10" fill="#FBDA57"/>
<rect opacity="0.3" x="145.419" y="139.931" width="172.533" height="307.776" rx="10" fill="#FBDA57"/>
</g>
</g>
</g>
<path opacity="0.3" fill-rule="evenodd" clip-rule="evenodd" d="M92.4966 91.6665H158.483C163.038 91.6665 166.731 95.3975 166.731 99.9998V150C166.731 154.602 163.038 158.333 158.483 158.333H92.4966C87.9412 158.333 84.2483 154.602 84.2483 150V99.9998C84.2483 95.3975 87.9412 91.6665 92.4966 91.6665Z" fill="#FF7276"/>
<path fill-rule="evenodd" clip-rule="evenodd" d="M152.297 120.833H98.6828C95.2662 120.833 92.4966 123.632 92.4966 127.083V129.167H111.409C112.503 129.167 113.552 129.606 114.325 130.387L118.449 134.554C120.317 136.44 122.849 137.5 125.49 137.5C128.13 137.5 130.663 136.44 132.53 134.554L136.654 130.387C137.428 129.606 138.477 129.167 139.571 129.167H158.483V127.083C158.483 123.632 155.713 120.833 152.297 120.833Z" fill="#FF7276"/>
<path fill-rule="evenodd" clip-rule="evenodd" d="M98.6828 100C95.2662 100 92.4966 102.798 92.4966 106.25V108.333H158.483V106.25C158.483 102.798 155.713 100 152.297 100H98.6828Z" fill="#FF7276"/>
</svg>
