<svg width="115" height="104" viewBox="0 0 250 251" fill="none" xmlns="http://www.w3.org/2000/svg">
<rect x="0.5" y="0.5" width="249" height="249" rx="9.5" fill="#DBDBDB" fill-opacity="0.15" stroke="#DBDBDB"/>
<g opacity="0.75">
<mask id="mask0" mask-type="alpha" maskUnits="userSpaceOnUse" x="0" y="24" width="250" height="227">
<rect y="24" width="250" height="226.087" rx="10" fill="#FBDA57"/>
</mask>
<g mask="url(#mask0)">
<g opacity="0.5">
<rect opacity="0.3" x="211.755" y="39.3823" width="172.533" height="307.776" rx="10" fill="#FBDA57"/>
<rect opacity="0.1" x="172.299" y="-9.98633" width="172.533" height="307.776" rx="10" fill="#FBDA57"/>
<rect opacity="0.2" x="111.39" y="99.6045" width="172.533" height="307.776" rx="10" fill="#FBDA57"/>
<rect opacity="0.3" x="145.419" y="139.931" width="172.533" height="307.776" rx="10" fill="#FBDA57"/>
</g>
</g>
</g>
<path opacity="0.3" d="M160.545 133.333C163.962 133.333 166.731 130.535 166.731 127.083C166.731 123.632 163.962 120.833 160.545 120.833C157.129 120.833 154.359 123.632 154.359 127.083C154.359 130.535 157.129 133.333 160.545 133.333Z" fill="#FF7276"/>
<path opacity="0.3" d="M153.623 79.3701L89.8851 96.6247C87.685 97.2203 86.3794 99.505 86.9689 101.728L92.3059 121.851C92.8955 124.074 95.1569 125.393 97.357 124.798L161.095 107.543C163.295 106.947 164.601 104.663 164.011 102.44L158.674 82.3164C158.085 80.0936 155.823 78.7745 153.623 79.3701Z" fill="#FF7276"/>
<path fill-rule="evenodd" clip-rule="evenodd" d="M166.731 113.903C164.856 113.003 162.759 112.5 160.545 112.5C152.573 112.5 146.111 119.029 146.111 127.083C146.111 135.137 152.573 141.667 160.545 141.667C162.759 141.667 164.856 141.163 166.731 140.263V150C166.731 154.602 163.038 158.333 158.483 158.333H92.4966C87.9412 158.333 84.2483 154.602 84.2483 150V99.9998C84.2483 95.3975 87.9412 91.6665 92.4966 91.6665H158.483C163.038 91.6665 166.731 95.3975 166.731 99.9998V113.903Z" fill="#FF7276"/>
</svg>
