<svg width="115" height="104" viewBox="0 0 250 251" fill="none" xmlns="http://www.w3.org/2000/svg">
<rect x="0.5" y="0.5" width="249" height="249" rx="9.5" fill="#DBDBDB" fill-opacity="0.15" stroke="#DBDBDB"/>
<g opacity="0.75">
<mask id="mask0" mask-type="alpha" maskUnits="userSpaceOnUse" x="0" y="24" width="250" height="227">
<rect y="24" width="250" height="226.087" rx="10" fill="#FBDA57"/>
</mask>
<g mask="url(#mask0)">
<g opacity="0.5">
<rect opacity="0.3" x="211.755" y="39.3823" width="172.533" height="307.776" rx="10" fill="#FBDA57"/>
<rect opacity="0.1" x="172.299" y="-9.98633" width="172.533" height="307.776" rx="10" fill="#FBDA57"/>
<rect opacity="0.2" x="111.39" y="99.6045" width="172.533" height="307.776" rx="10" fill="#FBDA57"/>
<rect opacity="0.3" x="145.419" y="139.931" width="172.533" height="307.776" rx="10" fill="#FBDA57"/>
</g>
</g>
</g>
<g clip-path="url(#clip0)">
<path opacity="0.3" fill-rule="evenodd" clip-rule="evenodd" d="M90.1524 90.6067L166.621 111.097C168.844 111.692 170.163 113.977 169.568 116.2L158.784 156.447C158.188 158.669 155.903 159.988 153.681 159.393L77.2114 138.903C74.9886 138.307 73.6696 136.023 74.2651 133.8L85.0493 93.553C85.6449 91.3302 87.9296 90.0111 90.1524 90.6067ZM117.603 141.099C126.494 143.481 135.633 138.205 138.015 129.313C140.398 120.422 135.121 111.283 126.23 108.901C117.339 106.519 108.2 111.795 105.818 120.686C103.435 129.577 108.712 138.716 117.603 141.099Z" fill="#FF7276"/>
<path fill-rule="evenodd" clip-rule="evenodd" d="M82.3333 100H161.5C163.801 100 165.667 101.865 165.667 104.167V145.833C165.667 148.135 163.801 150 161.5 150H82.3333C80.0321 150 78.1666 148.135 78.1666 145.833V104.167C78.1666 101.865 80.0321 100 82.3333 100ZM121.917 141.667C131.121 141.667 138.583 134.205 138.583 125C138.583 115.795 131.121 108.333 121.917 108.333C112.712 108.333 105.25 115.795 105.25 125C105.25 134.205 112.712 141.667 121.917 141.667ZM121.917 133.333C126.519 133.333 130.25 129.602 130.25 125C130.25 120.398 126.519 116.667 121.917 116.667C117.314 116.667 113.583 120.398 113.583 125C113.583 129.602 117.314 133.333 121.917 133.333Z" fill="#FF7276"/>
</g>
<defs>
<clipPath id="clip0">
<rect width="100" height="100" fill="white" transform="translate(74 75)"/>
</clipPath>
</defs>
</svg>
