<svg width="1448" height="908" viewBox="0 0 1448 908" fill="none" xmlns="http://www.w3.org/2000/svg">
<g clip-path="url(#clip0)" filter="url(#filter0_d)">
<path d="M1444 0H4.00006V900H1444V0Z" fill="white"/>
<g opacity="0.7">
<path opacity="0.7" d="M1755.5 510.704L1515.45 372.111C1501.1 363.827 1482.75 368.743 1474.47 383.092L1203.72 852.04C1195.44 866.389 1200.35 884.737 1214.7 893.021L1454.75 1031.61C1469.1 1039.9 1487.45 1034.98 1495.73 1020.63L1766.48 551.685C1774.76 537.336 1769.85 518.988 1755.5 510.704Z" fill="#FBDA57" fill-opacity="0.3"/>
<path opacity="0.1" d="M1736.96 388.593L1496.91 250C1482.56 241.716 1464.21 246.632 1455.93 260.981L1185.18 729.929C1176.9 744.278 1181.81 762.626 1196.16 770.91L1436.21 909.503C1450.56 917.787 1468.91 912.871 1477.19 898.522L1747.94 429.574C1756.22 415.225 1751.31 396.877 1736.96 388.593Z" fill="#FBDA57"/>
<path opacity="0.2" d="M1526.78 514.557L1286.73 375.964C1272.38 367.68 1254.03 372.596 1245.75 386.945L975 855.893C966.716 870.242 971.632 888.59 985.981 896.874L1226.03 1035.47C1240.38 1043.75 1258.73 1038.84 1267.01 1024.49L1537.76 555.538C1546.04 541.189 1541.13 522.841 1526.78 514.557Z" fill="#FBDA57"/>
<path opacity="0.3" d="M1544.97 616.062L1304.92 477.469C1290.57 469.185 1272.22 474.101 1263.94 488.45L993.19 957.398C984.906 971.747 989.822 990.095 1004.17 998.379L1244.22 1136.97C1258.57 1145.26 1276.92 1140.34 1285.2 1125.99L1555.95 657.043C1564.23 642.694 1559.32 624.346 1544.97 616.062Z" fill="#FBDA57"/>
</g>
<g opacity="0.7">
<path opacity="0.7" d="M354.469 6.776L239.909 -59.365C225.56 -67.6493 207.213 -62.733 198.928 -48.3842L57.4254 196.706C49.1411 211.055 54.0573 229.403 68.4061 237.687L182.966 303.828C197.314 312.112 215.662 307.196 223.946 292.847L365.449 47.7568C373.734 33.408 368.817 15.0603 354.469 6.776Z" fill="#FBDA57" fill-opacity="0.3"/>
<path opacity="0.1" d="M343.898 -62.859L229.338 -129C214.989 -137.284 196.642 -132.368 188.357 -118.019L46.8543 127.071C38.57 141.42 43.4863 159.768 57.8351 168.052L172.395 234.193C186.743 242.477 205.091 237.561 213.375 223.212L354.878 -21.8782C363.163 -36.227 358.246 -54.5747 343.898 -62.859Z" fill="#FBDA57"/>
<path opacity="0.2" d="M224.043 8.97303L109.484 -57.168C95.135 -65.4522 76.7873 -60.536 68.503 -46.1872L-73 198.903C-81.2843 213.252 -76.368 231.6 -62.0193 239.884L52.5403 306.025C66.8891 314.309 85.2368 309.393 93.5211 295.044L235.024 49.9538C243.308 35.605 238.392 17.2573 224.043 8.97303Z" fill="#FBDA57"/>
<path opacity="0.3" d="M234.416 66.8566L119.856 0.715576C105.507 -7.5687 87.1596 -2.65244 78.8753 11.6963L-62.6277 256.787C-70.912 271.136 -65.9957 289.483 -51.6469 297.767L62.9126 363.908C77.2614 372.193 95.6091 367.277 103.893 352.928L245.396 107.837C253.681 93.4886 248.764 75.1408 234.416 66.8566Z" fill="#FBDA57"/>
</g>
<path opacity="0.2" d="M697.635 852.5V867.5" stroke="#595959"/>
</g>
<defs>
<filter id="filter0_d" x="0" y="0" width="1448" height="908" filterUnits="userSpaceOnUse" color-interpolation-filters="sRGB">
<feFlood flood-opacity="0" result="BackgroundImageFix"/>
<feColorMatrix in="SourceAlpha" type="matrix" values="0 0 0 0 0 0 0 0 0 0 0 0 0 0 0 0 0 0 127 0"/>
<feOffset dy="4"/>
<feGaussianBlur stdDeviation="2"/>
<feColorMatrix type="matrix" values="0 0 0 0 0 0 0 0 0 0 0 0 0 0 0 0 0 0 0.25 0"/>
<feBlend mode="normal" in2="BackgroundImageFix" result="effect1_dropShadow"/>
<feBlend mode="normal" in="SourceGraphic" in2="effect1_dropShadow" result="shape"/>
</filter>
<clipPath id="clip0">
<rect width="1440" height="900" fill="white" transform="translate(4)"/>
</clipPath>
</defs>
</svg>
